<?xml version="1.0" encoding="utf-8"?>
<!-- Generator: Adobe Illustrator 24.0.1, SVG Export Plug-In . SVG Version: 6.00 Build 0)  -->
<svg version="1.1" id="Capa_1" xmlns="http://www.w3.org/2000/svg" xmlns:xlink="http://www.w3.org/1999/xlink" x="0px" y="0px"
	 viewBox="0 0 16 16" style="enable-background:new 0 0 16 16;" xml:space="preserve">
<style type="text/css">
	.st0{fill:#FFFFFF;}
	.st1{clip-path:url(#SVGID_4_);fill:#233FFF;}
	.st2{fill:#233FFF;}
	.st3{clip-path:url(#SVGID_6_);fill:#233FFF;}
</style>
<g>
	<rect x="0.01" class="st0" width="15.97" height="16"/>
</g>
<path class="st2" d="M12,8.2c-0.17,0-0.31-0.14-0.31-0.3c0-0.86-0.34-1.68-0.96-2.29C10.11,5,9.29,4.66,8.42,4.66
	c-0.17,0-0.31-0.14-0.31-0.3c0-0.17,0.14-0.3,0.31-0.3c1.04,0,2.02,0.4,2.75,1.13c0.74,0.73,1.14,1.69,1.14,2.72
	C12.31,8.07,12.17,8.2,12,8.2 M8.11,6.13c0-0.17,0.14-0.3,0.31-0.3c1.16,0,2.1,0.93,2.1,2.08c0,0.17-0.14,0.3-0.31,0.3
	c-0.17,0-0.31-0.14-0.31-0.3c0-0.81-0.67-1.47-1.48-1.47C8.24,6.43,8.11,6.3,8.11,6.13 M11.19,11.51c-0.17,0.49-0.46,0.84-0.86,1.02
	c-0.19,0.08-0.39,0.13-0.59,0.13c-0.22,0-0.45-0.05-0.69-0.14c-1.18-0.47-2.2-1.14-3.06-1.97c0,0,0,0-0.01-0.01
	c-0.84-0.84-1.52-1.86-2-3.02C3.8,7.06,3.8,6.62,3.97,6.25C4.15,5.86,4.51,5.56,5,5.4c0.22-0.07,0.43-0.07,0.64,0
	C6.1,5.57,7.06,6.86,7.08,7.35c0.02,0.47-0.33,0.7-0.49,0.82c-0.14,0.1-0.33,0.06-0.43-0.08C6.07,7.94,6.1,7.75,6.24,7.66
	c0.2-0.13,0.23-0.19,0.23-0.28c-0.03-0.26-0.8-1.3-1.04-1.4c-0.07-0.03-0.14-0.03-0.22,0C4.87,6.09,4.64,6.27,4.53,6.5
	c-0.1,0.22-0.09,0.49,0.03,0.78c0.45,1.09,1.07,2.04,1.86,2.82c0,0,0,0,0,0c0.8,0.78,1.76,1.4,2.86,1.84
	c0.3,0.12,0.57,0.13,0.79,0.03c0.24-0.11,0.42-0.33,0.53-0.66c0.03-0.08,0.03-0.15,0-0.22c-0.11-0.24-1.16-1-1.42-1.03
	c-0.08,0-0.14,0.03-0.28,0.22c-0.1,0.14-0.29,0.17-0.43,0.08c-0.14-0.1-0.18-0.28-0.08-0.42c0.12-0.17,0.35-0.51,0.83-0.49
	c0.49,0.03,1.8,0.97,1.97,1.43C11.26,11.08,11.26,11.29,11.19,11.51 M8,0C3.59,0,0.01,3.58,0.01,8S3.59,16,8,16s7.99-3.58,7.99-8
	S12.41,0,8,0"/>
</svg>
